<svg width="8" height="13" viewBox="0 0 8 13" fill="none" xmlns="http://www.w3.org/2000/svg">
<path id="Vector Copy 16" d="M2.9097 6.76524L7.41833 11.1176C7.57129 11.276 7.65593 11.4881 7.65402 11.7083C7.65211 11.9285 7.56379 12.1391 7.4081 12.2948C7.2524 12.4505 7.04179 12.5388 6.82161 12.5407C6.60143 12.5426 6.38931 12.458 6.23094 12.305L1.1925 7.2666C1.1148 7.18935 1.05313 7.0975 1.01105 6.99633C0.968973 6.89516 0.947307 6.78667 0.947299 6.6771C0.947299 6.56458 0.969131 6.45541 1.0128 6.35296C1.05465 6.25116 1.11631 6.15868 1.19418 6.08089L6.23262 1.04245C6.39099 0.889489 6.60311 0.804848 6.82329 0.806762C7.04346 0.808675 7.25408 0.896989 7.40978 1.05268C7.56547 1.20838 7.65379 1.419 7.6557 1.63917C7.65761 1.85935 7.57297 2.07147 7.42001 2.22985L3.81417 5.834L2.9097 6.76524Z" fill="#F5882B"/>
</svg>
