<svg width="36" height="27" viewBox="0 0 36 27" fill="none" xmlns="http://www.w3.org/2000/svg">
<path d="M6.79562 2.36091C7.70229 1.24091 8.66229 0.627572 9.67562 0.520906C10.7423 0.360905 11.649 0.547571 12.3956 1.0809C13.1423 1.61424 13.5423 2.38757 13.5956 3.40091C13.7023 4.36091 13.2756 5.42757 12.3156 6.6009C10.9823 8.14757 10.0756 9.72091 9.59562 11.3209C9.16895 12.8676 8.95562 14.2276 8.95562 15.4009L8.47562 11.5609C10.9823 11.5609 12.9823 12.2542 14.4756 13.6409C15.969 15.0276 16.7156 16.9209 16.7156 19.3209C16.7156 21.6142 16.0223 23.4809 14.6356 24.9209C13.249 26.3076 11.3023 27.0009 8.79562 27.0009C6.39562 27.0009 4.47562 26.1742 3.03562 24.5209C1.64895 22.8142 0.955619 20.4676 0.955619 17.4809C0.955619 15.9876 1.08895 14.4676 1.35562 12.9209C1.62229 11.3742 2.18229 9.74757 3.03562 8.0409C3.94229 6.28091 5.19562 4.38757 6.79562 2.36091ZM25.1956 2.36091C26.1023 1.24091 27.0623 0.627572 28.0756 0.520906C29.1423 0.360905 30.049 0.547571 30.7956 1.0809C31.5423 1.61424 31.9423 2.38757 31.9956 3.40091C32.1023 4.36091 31.6756 5.42757 30.7156 6.6009C29.3823 8.14757 28.4756 9.72091 27.9956 11.3209C27.569 12.8676 27.3556 14.2276 27.3556 15.4009L26.8756 11.5609C29.3823 11.5609 31.3823 12.2542 32.8756 13.6409C34.369 15.0276 35.1156 16.9209 35.1156 19.3209C35.1156 21.6142 34.4223 23.4809 33.0356 24.9209C31.649 26.3076 29.7023 27.0009 27.1956 27.0009C24.7956 27.0009 22.8756 26.1742 21.4356 24.5209C20.049 22.8142 19.3556 20.4676 19.3556 17.4809C19.3556 15.9876 19.489 14.4676 19.7556 12.9209C20.0223 11.3742 20.5823 9.74757 21.4356 8.0409C22.3423 6.28091 23.5956 4.38757 25.1956 2.36091Z" fill="#F5882B"/>
</svg>
