<svg width="8" height="13" viewBox="0 0 8 13" fill="none" xmlns="http://www.w3.org/2000/svg">
<path id="Vector Copy 15" d="M5.561 6.76524L1.05235 11.1177C0.899381 11.2761 0.81474 11.4882 0.816653 11.7084C0.818567 11.9286 0.90688 12.1392 1.06258 12.2949C1.21827 12.4506 1.42889 12.5389 1.64907 12.5408C1.86924 12.5427 2.08137 12.4581 2.23974 12.3051L7.2782 7.26661C7.3559 7.18935 7.41757 7.0975 7.45965 6.99633C7.50173 6.89516 7.5234 6.78667 7.5234 6.6771C7.5234 6.56457 7.50157 6.45541 7.4579 6.35296C7.41605 6.25115 7.3544 6.15867 7.27652 6.08088L2.23806 1.04237C2.07969 0.889401 1.86757 0.804759 1.64739 0.806672C1.42721 0.808586 1.21659 0.896901 1.0609 1.0526C0.905202 1.20829 0.816886 1.41892 0.814973 1.6391C0.81306 1.85928 0.897701 2.0714 1.05067 2.22978L4.65652 5.83399L5.561 6.76524Z" fill="#F5882B"/>
</svg>
