<svg width="696" height="512" viewBox="0 0 696 512" fill="none" xmlns="http://www.w3.org/2000/svg">
<path d="M456.739 511.642C454.772 507.805 452.711 504.006 450.838 500.132C418.412 432.783 386.023 365.435 353.616 298.086C342.19 274.352 324.862 267.957 300.585 278.452C203.888 320.335 107.172 362.219 10.4752 404.084C7.51544 405.362 4.44331 406.416 0.640625 405.569C4.96782 403.369 9.25756 401.056 13.641 398.968C107.565 354.621 201.49 310.273 295.415 265.945C319.317 254.661 325.948 237.715 315.908 213.022C288.839 146.425 261.715 79.8292 234.628 13.233C233.017 9.30233 231.518 5.31521 231.818 0.444153C234.028 4.60054 236.389 8.7005 238.43 12.9509C269.414 77.5159 300.36 142.081 331.325 206.665C342.639 230.287 359.348 236.643 383.363 226.299C484.182 182.892 584.962 139.448 685.762 96.0222C688.515 94.8373 691.344 93.7841 695.203 94.6116C692.224 96.1914 689.302 97.8841 686.249 99.3134C587.697 145.579 489.164 191.845 390.594 238.035C364.8 250.109 358.543 266.227 369.427 292.689C397.506 360.921 425.512 429.191 453.498 497.442C455.277 501.768 456.776 506.188 458.424 510.551C457.862 510.908 457.282 511.266 456.72 511.623L456.739 511.642Z" fill="white"/>
</svg>
